<svg width="20" height="20" viewBox="0 0 25 29" fill="none" xmlns="http://www.w3.org/2000/svg">
    <path d="M15.625 14.3335H1M1 14.3335L4.9375 10.3335M1 14.3335L4.9375 18.3335" stroke="black" stroke-width="1.5" stroke-linecap="round" stroke-linejoin="round"/>
    <path d="M8.87744 7.66667C8.89094 4.76667 9.00007 3.196 9.86407 2.172C10.8529 1 12.4437 1 15.6252 1H16.7502C19.9328 1 21.5236 1 22.5124 2.172C23.5002 3.34267 23.5002 5.22933 23.5002 9V19.6667C23.5002 23.4373 23.5002 25.324 22.5124 26.4947C21.6473 27.52 20.3221 27.648 17.8752 27.664M8.87744 21C8.89094 23.9 9.00007 25.4707 9.86407 26.4947C10.5852 27.3507 11.6281 27.5813 13.3752 27.644" stroke="black" stroke-width="1.5" stroke-linecap="round"/>
</svg>
    