<svg width="20" height="20" viewBox="0 0 35 31" fill="none" xmlns="http://www.w3.org/2000/svg">
    <path d="M29.75 12.3998H31.5V29.4498H3.5V12.3998H5.25V9.29984C5.25 5.02184 9.17 1.54984 14 1.54984C15.2425 1.54984 16.4325 1.78234 17.5 2.20084C18.602 1.76837 19.7946 1.54655 21 1.54984C25.83 1.54984 29.75 5.02184 29.75 9.29984V12.3998ZM8.75 9.29984V12.3998H12.25V9.29984C12.25 7.54834 12.9325 5.95184 14.035 4.64984H14C11.1125 4.64984 8.75 6.74234 8.75 9.29984ZM26.25 12.3998V9.29984C26.25 6.74234 23.8875 4.64984 21 4.64984H20.965C22.1157 5.98637 22.7425 7.61905 22.75 9.29984V12.3998H26.25ZM17.5 5.85884C16.4325 6.71134 15.75 7.93584 15.75 9.29984V12.3998H19.25V9.29984C19.25 7.93584 18.5675 6.71134 17.5 5.85884Z" fill="black"/>
</svg>
    