<svg width="40" height="40" viewBox="0 0 64 56" fill="none" xmlns="http://www.w3.org/2000/svg">
    <path d="M15.6002 39.8998C17.8668 38.3832 20.4002 37.1873 23.2002 36.3123C26.0002 35.4373 28.9335 34.9998 32.0002 34.9998C35.0668 34.9998 38.0002 35.4373 40.8002 36.3123C43.6002 37.1873 46.1335 38.3832 48.4002 39.8998C49.9557 38.3054 51.1668 36.4971 52.0335 34.4748C52.9002 32.4526 53.3335 30.2943 53.3335 27.9998C53.3335 22.8276 51.2557 18.4234 47.1002 14.7873C42.9446 11.1512 37.9113 9.33317 32.0002 9.33317C26.0891 9.33317 21.0557 11.1512 16.9002 14.7873C12.7446 18.4234 10.6668 22.8276 10.6668 27.9998C10.6668 30.2943 11.1002 32.4526 11.9668 34.4748C12.8335 36.4971 14.0446 38.3054 15.6002 39.8998ZM32.0002 30.3332C29.3779 30.3332 27.1668 29.5457 25.3668 27.9707C23.5668 26.3957 22.6668 24.4609 22.6668 22.1665C22.6668 19.8721 23.5668 17.9373 25.3668 16.3623C27.1668 14.7873 29.3779 13.9998 32.0002 13.9998C34.6224 13.9998 36.8335 14.7873 38.6335 16.3623C40.4335 17.9373 41.3335 19.8721 41.3335 22.1665C41.3335 24.4609 40.4335 26.3957 38.6335 27.9707C36.8335 29.5457 34.6224 30.3332 32.0002 30.3332ZM32.0002 51.3332C28.3113 51.3332 24.8446 50.7207 21.6002 49.4957C18.3557 48.2707 15.5335 46.6082 13.1335 44.5082C10.7335 42.4082 8.8335 39.9387 7.4335 37.0998C6.0335 34.2609 5.3335 31.2276 5.3335 27.9998C5.3335 24.7721 6.0335 21.7387 7.4335 18.8998C8.8335 16.0609 10.7335 13.5915 13.1335 11.4915C15.5335 9.3915 18.3557 7.729 21.6002 6.504C24.8446 5.279 28.3113 4.6665 32.0002 4.6665C35.6891 4.6665 39.1557 5.279 42.4002 6.504C45.6446 7.729 48.4668 9.3915 50.8668 11.4915C53.2668 13.5915 55.1668 16.0609 56.5668 18.8998C57.9668 21.7387 58.6668 24.7721 58.6668 27.9998C58.6668 31.2276 57.9668 34.2609 56.5668 37.0998C55.1668 39.9387 53.2668 42.4082 50.8668 44.5082C48.4668 46.6082 45.6446 48.2707 42.4002 49.4957C39.1557 50.7207 35.6891 51.3332 32.0002 51.3332Z" fill="#1D1B20"/>
</svg>
    