<svg width="286" height="287" viewBox="0 0 286 287" fill="none" xmlns="http://www.w3.org/2000/svg">
    <path d="M109.512 79.0917C60.3059 128.89 147.62 214.094 150.3 216.339L198.24 217.777L196.167 147.762C158.113 117.089 164.827 83.1433 137.263 72.1294C130.633 69.4317 120.057 68.4091 109.512 79.0917Z" fill="white"/>
    <path d="M102.802 135.87C102.802 135.87 74.9041 129.393 70.9703 135.325C65.6674 143.281 117.629 171.835 121.695 174.022C125.911 176.393 102.802 135.87 102.802 135.87Z" fill="white"/>
    <path d="M172.819 123.583C172.819 123.583 196.349 126.442 206.848 126.308C220.429 126.265 214.467 151.969 189.257 150.929C163.961 149.959 172.819 123.583 172.819 123.583Z" fill="white"/>
    <path d="M113.211 125.17C115.542 125.633 117.224 123.789 116.967 121.051C116.711 118.312 114.612 115.717 112.281 115.253C109.949 114.79 108.268 116.634 108.524 119.372C108.781 122.11 110.879 124.706 113.211 125.17Z" fill="#020202"/>
    <path d="M129.865 122.868C132.247 123.184 134.115 121.3 134.036 118.659C133.957 116.018 131.962 113.621 129.58 113.305C127.198 112.988 125.331 114.873 125.409 117.513C125.488 120.154 127.483 122.551 129.865 122.868Z" fill="#020202"/>
    <path d="M124.773 135.577C128.041 135.365 130.165 131.965 130.468 134.461C130.772 136.957 129.098 140.903 125.744 141.186C122.476 141.398 118.914 137.888 118.61 135.392C118.306 132.896 121.419 135.859 124.773 135.577Z" fill="#020202"/>
</svg>
    