<svg width="20" height="20" viewBox="0 0 33 29" fill="none" xmlns="http://www.w3.org/2000/svg">
    <path d="M16.5 14.5002C14.9875 14.5002 13.6927 14.0269 12.6156 13.0804C11.5385 12.1338 11 10.996 11 9.66683C11 8.33766 11.5385 7.19982 12.6156 6.25329C13.6927 5.30676 14.9875 4.8335 16.5 4.8335C18.0125 4.8335 19.3073 5.30676 20.3844 6.25329C21.4615 7.19982 22 8.33766 22 9.66683C22 10.996 21.4615 12.1338 20.3844 13.0804C19.3073 14.0269 18.0125 14.5002 16.5 14.5002ZM5.5 24.1668V20.7835C5.5 20.0988 5.70052 19.4694 6.10156 18.8955C6.5026 18.3215 7.03542 17.8835 7.7 17.5814C9.12083 16.9571 10.5646 16.4889 12.0312 16.1767C13.4979 15.8646 14.9875 15.7085 16.5 15.7085C18.0125 15.7085 19.5021 15.8646 20.9688 16.1767C22.4354 16.4889 23.8792 16.9571 25.3 17.5814C25.9646 17.8835 26.4974 18.3215 26.8984 18.8955C27.2995 19.4694 27.5 20.0988 27.5 20.7835V24.1668H5.5ZM8.25 21.7502H24.75V20.7835C24.75 20.562 24.687 20.3606 24.5609 20.1793C24.4349 19.9981 24.2687 19.8571 24.0625 19.7564C22.825 19.2127 21.576 18.8048 20.3156 18.533C19.0552 18.2611 17.7833 18.1252 16.5 18.1252C15.2167 18.1252 13.9448 18.2611 12.6844 18.533C11.424 18.8048 10.175 19.2127 8.9375 19.7564C8.73125 19.8571 8.5651 19.9981 8.43906 20.1793C8.31302 20.3606 8.25 20.562 8.25 20.7835V21.7502ZM16.5 12.0835C17.2563 12.0835 17.9036 11.8469 18.4422 11.3736C18.9807 10.9003 19.25 10.3314 19.25 9.66683C19.25 9.00225 18.9807 8.43332 18.4422 7.96006C17.9036 7.48679 17.2563 7.25016 16.5 7.25016C15.7437 7.25016 15.0964 7.48679 14.5578 7.96006C14.0193 8.43332 13.75 9.00225 13.75 9.66683C13.75 10.3314 14.0193 10.9003 14.5578 11.3736C15.0964 11.8469 15.7437 12.0835 16.5 12.0835Z" fill="#1D1B20"/>
</svg>
    