<svg width="20" height="20" viewBox="0 0 28 21" fill="none" xmlns="http://www.w3.org/2000/svg">
    <path d="M17.7449 19.0336C17.831 19.1892 17.8798 19.3693 17.8862 19.5549C17.8927 19.7405 17.8564 19.9247 17.7814 20.088C17.7063 20.2514 17.5952 20.3878 17.4598 20.4828C17.3244 20.5779 17.1697 20.6281 17.0121 20.6281H0.874893C0.717279 20.6281 0.562597 20.5779 0.427188 20.4828C0.29178 20.3878 0.180674 20.2514 0.105609 20.088C0.0305435 19.9247 -0.00569348 19.7405 0.000726255 19.5549C0.00714599 19.3693 0.0559841 19.1892 0.142081 19.0336C1.37376 16.7991 3.18543 15.094 5.30677 14.1725C4.13405 13.2524 3.24371 11.9119 2.76741 10.3492C2.29111 8.78658 2.25414 7.08477 2.66196 5.49545C3.06979 3.90613 3.90076 2.51368 5.03199 1.52401C6.16322 0.534343 7.53465 0 8.94349 0C10.3523 0 11.7238 0.534343 12.855 1.52401C13.9862 2.51368 14.8172 3.90613 15.225 5.49545C15.6328 7.08477 15.5959 8.78658 15.1196 10.3492C14.6433 11.9119 13.7529 13.2524 12.5802 14.1725C14.7015 15.094 16.5132 16.7991 17.7449 19.0336ZM27.36 19.0142C26.128 16.7892 24.3204 15.0914 22.2052 14.1725C23.5897 13.0734 24.5667 11.3938 24.9375 9.47561C25.3082 7.55742 25.0448 5.5448 24.2009 3.84741C23.3569 2.15003 21.9959 0.895477 20.3948 0.339106C18.7937 -0.217265 17.0728 -0.0336312 15.5825 0.85263C15.5256 0.887308 15.4757 0.936328 15.4366 0.996218C15.3975 1.05611 15.37 1.12541 15.3561 1.1992C15.3423 1.273 15.3423 1.34948 15.3563 1.42325C15.3703 1.49702 15.3979 1.56626 15.4371 1.62607C16.5452 3.2552 17.1816 5.25973 17.2531 7.34604C17.3245 9.43236 16.8273 11.4908 15.8341 13.2199C15.7699 13.3329 15.7462 13.4712 15.7681 13.6047C15.79 13.7382 15.8558 13.8561 15.9511 13.9327C17.2461 14.9978 18.3546 16.3472 19.216 17.9069C19.5634 18.534 19.7053 19.2887 19.6152 20.03C19.6051 20.1038 19.6086 20.1792 19.6257 20.2512C19.6427 20.3231 19.6728 20.3899 19.7139 20.4468C19.755 20.5036 19.8061 20.5493 19.8637 20.5806C19.9212 20.612 19.9838 20.6282 20.0472 20.6281H26.6425C26.8352 20.6282 27.0225 20.5533 27.1754 20.4151C27.3283 20.2769 27.4382 20.0831 27.488 19.8637C27.5184 19.7195 27.5228 19.5693 27.5007 19.4229C27.4787 19.2766 27.4307 19.1373 27.36 19.0142Z" fill="black"/>
</svg>
    